<svg t="1732229523910" class="icon" viewBox="0 0 1024 1024" version="1.1" xmlns="http://www.w3.org/2000/svg" p-id="4630" width="200" height="200"><path d="M879.024 275.296L529.04 68.656a33.36 33.36 0 0 0-34.016 0L144.96 275.296A34.928 34.928 0 0 0 128 305.376v413.168c0 12.432 6.464 23.92 16.976 30.128l349.984 206.64c10.544 6.24 23.536 6.24 34.08 0l349.984-206.64A34.928 34.928 0 0 0 896 718.56V305.44c0-12.416-6.464-23.904-16.976-30.128zM512.048 138.944l267.68 158.032L512 455.008 244.272 296.96 512 138.944h0.048zM196.032 348.832l281.952 166.432v349.728L196.032 698.56V348.832z m349.984 516.16V515.264l282.016-166.432V698.56L546.016 864.992z" fill="#000000" p-id="4631"></path></svg>